<svg width="16" height="16" viewBox="0 0 16 16" fill="none" xmlns="http://www.w3.org/2000/svg">
<path d="M8.0026 4.00016C8.37079 4.00016 8.66927 4.29864 8.66927 4.66683V7.72412L10.474 9.52881L10.5195 9.57959C10.7331 9.84144 10.718 10.2274 10.474 10.4715C10.2299 10.7156 9.84388 10.7307 9.58203 10.5171L9.53125 10.4715L7.53125 8.47152C7.40623 8.34649 7.33594 8.17697 7.33594 8.00016V4.66683C7.33594 4.29864 7.63441 4.00016 8.0026 4.00016Z" fill="#141520"/>
<path fill-rule="evenodd" clip-rule="evenodd" d="M8.0026 1.3335C9.77071 1.3335 11.4666 2.03573 12.7168 3.28597C13.967 4.53621 14.6693 6.23205 14.6693 8.00016C14.6693 8.87564 14.4971 9.74276 14.1621 10.5516C13.8271 11.3604 13.3358 12.0953 12.7168 12.7144C12.0978 13.3334 11.3628 13.8246 10.554 14.1597C9.7452 14.4947 8.87808 14.6668 8.0026 14.6668C7.12713 14.6668 6.26001 14.4947 5.45117 14.1597C4.64236 13.8246 3.90745 13.3334 3.28841 12.7144C2.66937 12.0953 2.17813 11.3604 1.8431 10.5516C1.50807 9.74276 1.33594 8.87564 1.33594 8.00016C1.33594 6.23205 2.03817 4.53621 3.28841 3.28597C4.53865 2.03573 6.23449 1.3335 8.0026 1.3335ZM8.0026 2.66683C6.58812 2.66683 5.23131 3.22848 4.23112 4.22868C3.23093 5.22887 2.66927 6.58567 2.66927 8.00016C2.66927 8.70055 2.8075 9.39411 3.07552 10.0412C3.34354 10.6882 3.73591 11.2764 4.23112 11.7716C4.72633 12.2669 5.31457 12.6592 5.96159 12.9272C6.60866 13.1953 7.30222 13.3335 8.0026 13.3335C8.70299 13.3335 9.39655 13.1953 10.0436 12.9272C10.6906 12.6592 11.2789 12.2669 11.7741 11.7716C12.2693 11.2764 12.6617 10.6882 12.9297 10.0412C13.1977 9.39411 13.3359 8.70055 13.3359 8.00016C13.3359 6.58567 12.7743 5.22887 11.7741 4.22868C10.7739 3.22848 9.41709 2.66683 8.0026 2.66683Z" fill="#141520"/>
</svg>
