<svg width="22" height="20" viewBox="0 0 22 20" fill="none" xmlns="http://www.w3.org/2000/svg">
<path d="M18.4993 0.000999928C19.1134 0.00129223 19.7166 0.163176 20.2484 0.470391C20.7802 0.777607 21.2218 1.21934 21.5288 1.75122C21.8358 2.2831 21.9975 2.88641 21.9976 3.50055C21.9977 4.11469 21.8361 4.71804 21.5293 5.25L14.0293 18.24C13.6832 18.8392 13.1673 19.3225 12.5467 19.6286C11.9261 19.9347 11.2287 20.05 10.5426 19.9599C9.85648 19.8698 9.21249 19.5783 8.69199 19.1223C8.17149 18.6663 7.79784 18.0663 7.61825 17.398L6.11825 11.803L14.8883 6.739C15.1161 6.60545 15.2818 6.38721 15.3493 6.13192C15.4168 5.87662 15.3806 5.60499 15.2485 5.37631C15.1165 5.14762 14.8994 4.98044 14.6445 4.91125C14.3897 4.84206 14.1178 4.87648 13.8883 5.007L5.11925 10.07L1.02525 5.975C0.53578 5.48558 0.202417 4.862 0.0673157 4.18313C-0.0677854 3.50426 0.00144249 2.80057 0.266246 2.16104C0.53105 1.5215 0.979537 0.97485 1.555 0.590193C2.13047 0.205535 2.80707 0.000147808 3.49925 0L18.4993 0.000999928Z" fill="#E5E5E5"/>
</svg>
